<svg version="1.1" id="Layer_1" xmlns="http://www.w3.org/2000/svg" xmlns:xlink="http://www.w3.org/1999/xlink" x="0px" y="0px"
	 width="360px" height="130.394px" viewBox="0 0 360 130.394" enable-background="new 0 0 360 130.394" xml:space="preserve">
<g>
	<path fill="#FFFFFF" d="M3.188,18.855c0-2.184,0.796-4.073,2.388-5.664c1.591-1.592,3.499-2.389,5.72-2.389
		c2.257,0,4.184,0.797,5.775,2.389c1.592,1.555,2.388,3.462,2.388,5.719c0,2.26-0.796,4.186-2.388,5.776
		c-1.555,1.592-3.462,2.389-5.72,2.389c-2.258,0-4.185-0.797-5.775-2.389C3.983,23.096,3.188,21.15,3.188,18.855z"/>
	<rect x="5.076" y="33.637" fill="#FFFFFF" width="12.496" height="54.09"/>
	<path fill="#FFFFFF" d="M23.76,33.637h12.552v4.998c4.368-4.333,9.293-6.498,14.772-6.498c6.294,0,11.199,1.982,14.717,5.942
		c3.035,3.37,4.555,8.867,4.555,16.496v33.152H57.804V57.554c0-5.322-0.742-9.003-2.222-11.037
		c-1.444-2.072-4.073-3.105-7.886-3.105c-4.146,0-7.09,1.368-8.83,4.104c-1.703,2.699-2.554,7.415-2.554,14.145v26.067H23.76V33.637
		z"/>
	<path fill="#FFFFFF" d="M92.319,45.298v42.429H79.769V45.298h-7.335V33.637h7.335V21.43c0-6.811,1.184-11.626,3.554-14.439
		c3.258-3.924,7.997-5.888,14.218-5.888c2.22,0,5.979,0.649,9.35,1.945v12.774l-2.242-0.667c-2.703-1.372-4.923-2.056-6.664-2.056
		c-2.221,0-3.72,0.797-4.499,2.389c-0.776,1.554-1.166,1.663-1.166,6.105v12.043h14.57v11.661H92.319z"/>
	<path fill="#FFFFFF" d="M255.326,33.412v11.663h-14.571v19.754c0,4.442,0.39,7.442,1.167,8.996
		c0.777,1.593,2.275,2.389,4.497,2.389c1.74,0,3.962-0.685,6.664-2.055l2.243-0.667v12.774c-3.37,1.296-7.13,1.945-9.353,1.945
		c-6.22,0-10.958-1.964-14.217-5.888c-2.368-2.814-3.554-7.628-3.554-14.439V45.075h-7.334V33.412h7.334V2.549h12.552v30.863
		H255.326z"/>
	<path fill="#FFFFFF" d="M109.79,18.855c0-2.184,0.795-4.073,2.388-5.664c1.59-1.592,3.499-2.389,5.719-2.389
		c2.258,0,4.184,0.797,5.777,2.389c1.591,1.555,2.387,3.462,2.387,5.719c0,2.26-0.796,4.186-2.387,5.776
		c-1.555,1.592-3.463,2.389-5.721,2.389c-2.258,0-4.185-0.797-5.775-2.389C110.585,23.096,109.79,21.15,109.79,18.855z"/>
	<rect x="111.677" y="33.637" fill="#FFFFFF" width="12.496" height="54.09"/>
	<path fill="#FFFFFF" d="M305.422,63.626h-35.93c0.309,4.442,1.647,7.979,4.016,10.608c2.367,2.59,5.404,3.889,9.11,3.889
		c2.883,0,5.268-0.743,7.154-2.225c1.855-1.479,3.201-3.234,5.569-7.234l10.544,4.903c-1.511,2.776-3.106,5.157-4.786,7.136
		c-1.684,1.982-3.484,3.61-5.406,4.886c-1.922,1.277-3.997,2.211-6.229,2.804c-2.23,0.593-4.649,0.89-7.259,0.89
		c-7.48,0-13.486-2.589-18.016-7.774c-4.531-5.221-6.795-12.143-6.795-20.77c0-8.554,2.195-15.475,6.589-20.77
		c4.427-5.222,10.295-7.831,17.604-7.831c7.378,0,13.212,2.536,17.502,7.607c4.256,5.036,6.382,12.015,6.382,20.937L305.422,63.626z
		 M293.532,53.407c-1.613-6.665-5.508-9.996-11.686-9.996c-1.407,0-2.728,0.231-3.964,0.694c-1.235,0.462-2.359,1.129-3.373,2
		c-1.012,0.87-1.877,1.916-2.598,3.138c-0.723,1.223-1.271,2.609-1.646,4.164H293.532z"/>
	<path fill="#FFFFFF" d="M323.646,58.461L305.26,33.637h14.078l11.399,15.771l11.607-15.771h14.498l-18.909,24.824l21.904,29.266
		H345.76l-15.022-20.215l-15.392,20.215H300.9L323.646,58.461z"/>
	<path fill="#FFFFFF" d="M224.779,69.81c-5.031,7.189-13.713,10.82-21.095,13.6c-11.78,4.437-24.64,4.754-36.75,1.954
		c-10.674-2.468-21.36-8.109-28.937-16.95c-1.741-2.032-3.179-4.335-4.264-6.785c0.316,0.589,0.654,1.172,1.02,1.753
		c6.55,10.38,18.261,16.076,28.94,19.135c18.036,5.167,45.235,1.717,56.827-15.937l-1.955-0.089
		c-4.604,6.113-11.844,8.82-18.544,11.225c-10.342,3.713-21.585,3.733-32.175,1.473c-10.64-2.269-28.914-11.57-33.248-23.683
		c0.76,1.57,1.662,3.07,2.689,4.514c6.271,8.785,16.41,13.621,25.914,16.375c16.653,4.825,39.577,2.156,50.665-13.369l-1.707,0.042
		c-9.995,12.889-29.215,13.012-43.512,10.283c-8.8-1.681-17.374-5.615-24.411-11.748c-3.011-2.622-5.491-5.911-7.332-9.625
		c-2.697-5.442-2.016-10.436,0.326-15.689c0.247-0.318,0.432-0.74,0.544-1.185c0.431-0.979,0.311-1.769-0.063-2.163
		c-0.273-0.428-0.741-0.535-1.317-0.001c-0.038,0.033-0.075,0.069-0.113,0.104c-0.007,0.006-0.012,0.012-0.019,0.018
		c-0.168,0.159-0.33,0.373-0.482,0.645c-0.312,0.447-0.618,0.896-0.903,1.349c-6.425,8.017-8.274,19.626-3.965,29.458
		c5.293,12.078,18.205,19.704,29.275,23.312c14.86,4.846,30.766,4.43,45.343-1.441c7.923-3.191,16.173-8.633,21.034-16.579
		L224.779,69.81z"/>
	<g>
		<path fill="#FFFFFF" d="M131.128,126.437h-1.907v-12.749h1.907v0.899c0.752-0.752,1.606-1.128,2.561-1.128
			c1.135,0,2.071,0.418,2.805,1.254c0.747,0.831,1.119,1.88,1.119,3.146c0,1.237-0.369,2.27-1.11,3.095
			c-0.734,0.818-1.662,1.228-2.781,1.228c-0.965,0-1.831-0.387-2.594-1.161V126.437z M135.664,117.869
			c0-0.792-0.216-1.437-0.645-1.934c-0.435-0.503-0.983-0.754-1.644-0.754c-0.701,0-1.268,0.242-1.704,0.729
			c-0.435,0.486-0.651,1.124-0.651,1.915c0,0.775,0.217,1.414,0.651,1.917c0.43,0.491,0.995,0.736,1.695,0.736
			c0.662,0,1.207-0.248,1.637-0.746C135.444,119.235,135.664,118.614,135.664,117.869z"/>
		<path fill="#FFFFFF" d="M141.973,113.688v4.738c0,1.368,0.539,2.052,1.619,2.052s1.618-0.684,1.618-2.052v-4.738h1.909v4.781
			c0,0.661-0.082,1.231-0.247,1.712c-0.158,0.43-0.431,0.816-0.822,1.162c-0.644,0.559-1.464,0.838-2.458,0.838
			c-0.989,0-1.805-0.279-2.45-0.838c-0.395-0.346-0.674-0.732-0.839-1.162c-0.158-0.385-0.238-0.954-0.238-1.712v-4.781H141.973z"/>
		<path fill="#FFFFFF" d="M154.756,115.095l-1.576,0.84c-0.25-0.503-0.558-0.754-0.924-0.754c-0.175,0-0.325,0.058-0.449,0.173
			c-0.124,0.116-0.186,0.263-0.186,0.444c0,0.316,0.367,0.63,1.101,0.939c1.012,0.436,1.693,0.836,2.043,1.203
			c0.35,0.365,0.526,0.86,0.526,1.481c0,0.795-0.295,1.462-0.883,1.998c-0.57,0.508-1.259,0.761-2.068,0.761
			c-1.385,0-2.365-0.674-2.942-2.025l1.628-0.755c0.226,0.396,0.398,0.647,0.517,0.755c0.231,0.215,0.508,0.322,0.831,0.322
			c0.644,0,0.965-0.294,0.965-0.882c0-0.339-0.248-0.656-0.746-0.949c-0.192-0.096-0.385-0.189-0.576-0.279
			c-0.193-0.09-0.387-0.184-0.585-0.279c-0.554-0.271-0.944-0.543-1.17-0.814c-0.288-0.345-0.432-0.788-0.432-1.33
			c0-0.719,0.245-1.312,0.736-1.78c0.503-0.47,1.115-0.704,1.831-0.704C153.456,113.459,154.242,114.004,154.756,115.095z"/>
		<path fill="#FFFFFF" d="M157.437,107.627h1.908v6.748c0.678-0.611,1.427-0.916,2.247-0.916c0.932,0,1.677,0.302,2.238,0.907
			c0.474,0.525,0.711,1.365,0.711,2.518v5.061h-1.906v-4.882c0-0.662-0.117-1.142-0.353-1.438c-0.234-0.297-0.612-0.444-1.131-0.444
			c-0.667,0-1.136,0.205-1.407,0.618c-0.266,0.418-0.398,1.136-0.398,2.153v3.992h-1.908V107.627z"/>
		<path fill="#FFFFFF" d="M167.101,110.255c0-0.333,0.123-0.622,0.365-0.865c0.243-0.242,0.534-0.364,0.873-0.364
			c0.345,0,0.639,0.122,0.882,0.364c0.242,0.238,0.364,0.529,0.364,0.873c0,0.346-0.122,0.64-0.364,0.883
			c-0.238,0.242-0.53,0.364-0.873,0.364c-0.345,0-0.64-0.122-0.882-0.364C167.224,110.903,167.101,110.605,167.101,110.255z
			 M169.297,113.688v8.257h-1.908v-8.257H169.297z"/>
		<path fill="#FFFFFF" d="M172.146,113.688h1.916v0.764c0.667-0.661,1.418-0.992,2.255-0.992c0.961,0,1.709,0.302,2.247,0.907
			c0.463,0.514,0.695,1.353,0.695,2.518v5.061h-1.917v-4.606c0-0.812-0.113-1.373-0.339-1.684c-0.22-0.315-0.622-0.474-1.203-0.474
			c-0.633,0-1.083,0.208-1.348,0.625c-0.259,0.412-0.39,1.132-0.39,2.16v3.979h-1.916V113.688z"/>
		<path fill="#FFFFFF" d="M190.085,121.75c0,0.39-0.013,0.733-0.038,1.03c-0.025,0.296-0.061,0.559-0.106,0.783
			c-0.136,0.623-0.4,1.156-0.797,1.603c-0.746,0.858-1.771,1.289-3.076,1.289c-1.102,0-2.01-0.298-2.722-0.895
			c-0.734-0.613-1.158-1.459-1.271-2.539h1.916c0.073,0.406,0.196,0.72,0.365,0.941c0.396,0.514,0.972,0.771,1.729,0.771
			c1.396,0,2.094-0.853,2.094-2.56v-1.153c-0.758,0.774-1.631,1.161-2.62,1.161c-1.125,0-2.045-0.406-2.763-1.22
			c-0.724-0.825-1.085-1.856-1.085-3.093c0-1.205,0.337-2.228,1.009-3.07c0.724-0.892,1.679-1.339,2.865-1.339
			c1.04,0,1.904,0.387,2.594,1.161v-0.933h1.907V121.75z M188.254,117.837c0-0.801-0.215-1.441-0.644-1.92
			c-0.437-0.492-0.992-0.736-1.671-0.736c-0.723,0-1.293,0.267-1.712,0.803c-0.379,0.48-0.568,1.102-0.568,1.862
			c0,0.751,0.189,1.365,0.568,1.845c0.413,0.525,0.983,0.787,1.712,0.787c0.729,0,1.306-0.266,1.729-0.795
			C188.06,119.203,188.254,118.589,188.254,117.837z"/>
		<path fill="#FFFFFF" d="M200.685,115.468v6.477h-1.907v-6.477h-0.814v-1.78h0.814v-3.025h1.907v3.025h1.482v1.78H200.685z"/>
		<path fill="#FFFFFF" d="M204.246,107.627h1.907v6.748c0.678-0.611,1.428-0.916,2.246-0.916c0.934,0,1.679,0.302,2.238,0.907
			c0.475,0.525,0.711,1.365,0.711,2.518v5.061h-1.906v-4.882c0-0.662-0.117-1.142-0.353-1.438c-0.234-0.297-0.611-0.444-1.131-0.444
			c-0.667,0-1.136,0.205-1.407,0.618c-0.266,0.418-0.398,1.136-0.398,2.153v3.992h-1.907V107.627z"/>
		<path fill="#FFFFFF" d="M221.37,118.266h-5.916c0.052,0.678,0.271,1.217,0.661,1.618c0.391,0.396,0.89,0.594,1.5,0.594
			c0.476,0,0.868-0.113,1.18-0.339c0.305-0.227,0.651-0.645,1.042-1.255l1.61,0.899c-0.249,0.423-0.512,0.786-0.788,1.089
			c-0.277,0.303-0.574,0.551-0.891,0.746c-0.316,0.194-0.658,0.337-1.025,0.427c-0.368,0.092-0.766,0.136-1.195,0.136
			c-1.231,0-2.22-0.395-2.967-1.186c-0.746-0.797-1.118-1.854-1.118-3.171c0-1.305,0.361-2.361,1.084-3.17
			c0.729-0.798,1.696-1.195,2.899-1.195c1.215,0,2.176,0.387,2.882,1.161c0.701,0.77,1.052,1.834,1.052,3.196L221.37,118.266z
			 M219.413,116.706c-0.266-1.018-0.907-1.524-1.924-1.524c-0.233,0-0.45,0.034-0.653,0.104c-0.203,0.071-0.389,0.173-0.555,0.306
			c-0.167,0.133-0.31,0.293-0.429,0.479s-0.209,0.398-0.271,0.635H219.413z"/>
		<path fill="#FFFFFF" d="M231.657,115.468v6.477h-1.917v-6.477h-0.677v-1.78h0.677V110.5c0-1.039,0.182-1.772,0.543-2.203
			c0.497-0.6,1.22-0.897,2.17-0.897c0.339,0,0.766,0.098,1.28,0.296v1.949l-0.194-0.101c-0.413-0.21-0.752-0.314-1.018-0.314
			c-0.34,0-0.568,0.12-0.687,0.364c-0.119,0.236-0.178,0.695-0.178,1.373v2.721h2.076v1.78H231.657z"/>
		<path fill="#FFFFFF" d="M237.177,113.688v4.738c0,1.368,0.54,2.052,1.618,2.052c1.08,0,1.62-0.684,1.62-2.052v-4.738h1.907v4.781
			c0,0.661-0.082,1.231-0.246,1.712c-0.159,0.43-0.433,0.816-0.823,1.162c-0.644,0.559-1.463,0.838-2.458,0.838
			c-0.988,0-1.805-0.279-2.449-0.838c-0.396-0.346-0.675-0.732-0.84-1.162c-0.157-0.385-0.236-0.954-0.236-1.712v-4.781H237.177z"/>
		<path fill="#FFFFFF" d="M247.13,115.468v6.477h-1.908v-6.477h-0.812v-1.78h0.812v-3.025h1.908v3.025h1.483v1.78H247.13z"/>
		<path fill="#FFFFFF" d="M252.251,113.688v4.738c0,1.368,0.54,2.052,1.619,2.052c1.08,0,1.619-0.684,1.619-2.052v-4.738h1.907
			v4.781c0,0.661-0.082,1.231-0.245,1.712c-0.159,0.43-0.433,0.816-0.823,1.162c-0.645,0.559-1.464,0.838-2.458,0.838
			c-0.989,0-1.806-0.279-2.449-0.838c-0.396-0.346-0.676-0.732-0.84-1.162c-0.158-0.385-0.237-0.954-0.237-1.712v-4.781H252.251z"/>
		<path fill="#FFFFFF" d="M260.237,113.688h1.907v0.737c0.351-0.366,0.662-0.618,0.933-0.754c0.277-0.141,0.605-0.212,0.984-0.212
			c0.503,0,1.027,0.164,1.576,0.491l-0.873,1.746c-0.361-0.26-0.716-0.389-1.061-0.389c-1.038,0-1.56,0.785-1.56,2.355v4.281h-1.907
			V113.688z"/>
		<path fill="#FFFFFF" d="M274.564,118.266h-5.916c0.051,0.678,0.271,1.217,0.66,1.618c0.391,0.396,0.891,0.594,1.501,0.594
			c0.475,0,0.867-0.113,1.179-0.339c0.305-0.227,0.652-0.645,1.042-1.255l1.611,0.899c-0.249,0.423-0.512,0.786-0.789,1.089
			c-0.276,0.303-0.574,0.551-0.89,0.746c-0.317,0.194-0.658,0.337-1.025,0.427c-0.368,0.092-0.767,0.136-1.196,0.136
			c-1.23,0-2.22-0.395-2.966-1.186c-0.746-0.797-1.119-1.854-1.119-3.171c0-1.305,0.361-2.361,1.085-3.17
			c0.729-0.798,1.695-1.195,2.899-1.195c1.215,0,2.176,0.387,2.882,1.161c0.7,0.77,1.051,1.834,1.051,3.196L274.564,118.266z
			 M272.607,116.706c-0.267-1.018-0.908-1.524-1.925-1.524c-0.232,0-0.449,0.034-0.652,0.104c-0.204,0.071-0.389,0.173-0.556,0.306
			s-0.309,0.293-0.428,0.479s-0.209,0.398-0.271,0.635H272.607z"/>
		<path fill="#FFFFFF" d="M280.75,117.757c0-1.192,0.426-2.207,1.28-3.044c0.853-0.836,1.893-1.254,3.118-1.254
			c1.232,0,2.278,0.421,3.137,1.263c0.848,0.843,1.271,1.876,1.271,3.103c0,1.238-0.427,2.274-1.28,3.111
			c-0.858,0.831-1.912,1.245-3.161,1.245c-1.238,0-2.274-0.422-3.111-1.271C281.168,120.075,280.75,119.023,280.75,117.757z
			 M282.699,117.791c0,0.825,0.221,1.479,0.661,1.959c0.452,0.485,1.049,0.729,1.788,0.729c0.747,0,1.343-0.24,1.789-0.72
			c0.447-0.48,0.67-1.123,0.67-1.925s-0.223-1.444-0.67-1.924c-0.452-0.486-1.048-0.729-1.789-0.729
			c-0.729,0-1.318,0.242-1.771,0.729C282.926,116.396,282.699,117.023,282.699,117.791z"/>
		<path fill="#FFFFFF" d="M293.983,115.468v6.477h-1.916v-6.477h-0.678v-1.78h0.678V110.5c0-1.039,0.181-1.772,0.542-2.203
			c0.498-0.6,1.221-0.897,2.171-0.897c0.339,0,0.765,0.098,1.28,0.296v1.949l-0.195-0.101c-0.412-0.21-0.752-0.314-1.018-0.314
			c-0.339,0-0.568,0.12-0.687,0.364c-0.118,0.236-0.178,0.695-0.178,1.373v2.721h2.077v1.78H293.983z"/>
		<path fill="#FFFFFF" d="M305.354,115.468v6.477h-1.908v-6.477h-0.813v-1.78h0.813v-3.025h1.908v3.025h1.482v1.78H305.354z"/>
		<path fill="#FFFFFF" d="M316.587,118.266h-5.917c0.051,0.678,0.271,1.217,0.661,1.618c0.39,0.396,0.891,0.594,1.501,0.594
			c0.474,0,0.867-0.113,1.178-0.339c0.305-0.227,0.653-0.645,1.042-1.255l1.61,0.899c-0.248,0.423-0.51,0.786-0.787,1.089
			s-0.574,0.551-0.891,0.746c-0.316,0.194-0.658,0.337-1.025,0.427c-0.367,0.092-0.766,0.136-1.195,0.136
			c-1.232,0-2.221-0.395-2.967-1.186c-0.746-0.797-1.119-1.854-1.119-3.171c0-1.305,0.361-2.361,1.086-3.17
			c0.729-0.798,1.694-1.195,2.898-1.195c1.215,0,2.175,0.387,2.882,1.161c0.7,0.77,1.051,1.834,1.051,3.196L316.587,118.266z
			 M314.628,116.706c-0.266-1.018-0.906-1.524-1.924-1.524c-0.231,0-0.449,0.034-0.651,0.104c-0.204,0.071-0.39,0.173-0.557,0.306
			s-0.31,0.293-0.427,0.479c-0.119,0.187-0.211,0.398-0.271,0.635H314.628z"/>
		<path fill="#FFFFFF" d="M321.335,117.477l-2.966-3.789h2.271l1.84,2.407l1.873-2.407h2.341l-3.053,3.789l3.535,4.468h-2.272
			l-2.424-3.086l-2.483,3.086h-2.331L321.335,117.477z"/>
		<path fill="#FFFFFF" d="M330.865,115.468v6.477h-1.908v-6.477h-0.813v-1.78h0.813v-3.025h1.908v3.025h1.482v1.78H330.865z"/>
		<path fill="#FFFFFF" d="M333.79,110.255c0-0.333,0.122-0.622,0.365-0.865c0.242-0.242,0.534-0.364,0.873-0.364
			c0.345,0,0.639,0.122,0.882,0.364c0.242,0.238,0.363,0.529,0.363,0.873c0,0.346-0.121,0.64-0.363,0.883
			c-0.238,0.242-0.529,0.364-0.873,0.364c-0.345,0-0.64-0.122-0.882-0.364C333.912,110.903,333.79,110.605,333.79,110.255z
			 M335.986,113.688v8.257h-1.908v-8.257H335.986z"/>
		<path fill="#FFFFFF" d="M340.743,107.627v14.317h-1.907v-14.317H340.743z"/>
		<path fill="#FFFFFF" d="M351.111,118.266h-5.916c0.051,0.678,0.271,1.217,0.661,1.618c0.39,0.396,0.89,0.594,1.5,0.594
			c0.475,0,0.868-0.113,1.179-0.339c0.305-0.227,0.652-0.645,1.043-1.255l1.61,0.899c-0.249,0.423-0.512,0.786-0.789,1.089
			c-0.276,0.303-0.573,0.551-0.89,0.746c-0.316,0.194-0.658,0.337-1.025,0.427c-0.368,0.092-0.767,0.136-1.195,0.136
			c-1.231,0-2.221-0.395-2.967-1.186c-0.746-0.797-1.119-1.854-1.119-3.171c0-1.305,0.361-2.361,1.085-3.17
			c0.729-0.798,1.696-1.195,2.899-1.195c1.215,0,2.176,0.387,2.882,1.161c0.7,0.77,1.051,1.834,1.051,3.196L351.111,118.266z
			 M349.154,116.706c-0.267-1.018-0.908-1.524-1.925-1.524c-0.232,0-0.449,0.034-0.652,0.104c-0.204,0.071-0.389,0.173-0.556,0.306
			c-0.166,0.133-0.309,0.293-0.428,0.479s-0.209,0.398-0.271,0.635H349.154z"/>
		<path fill="#FFFFFF" d="M358.428,115.095l-1.576,0.84c-0.249-0.503-0.557-0.754-0.924-0.754c-0.175,0-0.325,0.058-0.449,0.173
			c-0.124,0.116-0.186,0.263-0.186,0.444c0,0.316,0.366,0.63,1.101,0.939c1.013,0.436,1.693,0.836,2.043,1.203
			c0.351,0.365,0.526,0.86,0.526,1.481c0,0.795-0.295,1.462-0.882,1.998c-0.57,0.508-1.261,0.761-2.069,0.761
			c-1.383,0-2.364-0.674-2.94-2.025l1.627-0.755c0.226,0.396,0.398,0.647,0.518,0.755c0.231,0.215,0.508,0.322,0.831,0.322
			c0.644,0,0.967-0.294,0.967-0.882c0-0.339-0.25-0.656-0.747-0.949c-0.192-0.096-0.384-0.189-0.576-0.279s-0.387-0.184-0.585-0.279
			c-0.554-0.271-0.944-0.543-1.17-0.814c-0.288-0.345-0.432-0.788-0.432-1.33c0-0.719,0.246-1.312,0.737-1.78
			c0.503-0.47,1.113-0.704,1.831-0.704C357.129,113.459,357.914,114.004,358.428,115.095z"/>
	</g>
</g>
</svg>
